<?xml version="1.0" encoding="UTF-8" standalone="no"?>
<!-- Created with Inkscape (http://www.inkscape.org/) -->
<svg
   xmlns:dc="http://purl.org/dc/elements/1.1/"
   xmlns:cc="http://web.resource.org/cc/"
   xmlns:rdf="http://www.w3.org/1999/02/22-rdf-syntax-ns#"
   xmlns:svg="http://www.w3.org/2000/svg"
   xmlns="http://www.w3.org/2000/svg"
   xmlns:xlink="http://www.w3.org/1999/xlink"
   xmlns:sodipodi="http://sodipodi.sourceforge.net/DTD/sodipodi-0.dtd"
   xmlns:inkscape="http://www.inkscape.org/namespaces/inkscape"
   width="744.09448819"
   height="1052.3622047"
   id="svg2"
   sodipodi:version="0.32"
   inkscape:version="0.45.1"
   sodipodi:docbase="C:\Development\ftp\public\images"
   sodipodi:docname="drawing.svg"
   inkscape:output_extension="org.inkscape.output.svg.inkscape">
  <defs
     id="defs4">
    <linearGradient
       id="linearGradient4118">
      <stop
         style="stop-color:#0c1a34;stop-opacity:1;"
         offset="0"
         id="stop4120" />
      <stop
         id="stop4126"
         offset="0.5"
         style="stop-color:#193567;stop-opacity:1;" />
      <stop
         style="stop-color:#193567;stop-opacity:1;"
         offset="0.89999998"
         id="stop4128" />
      <stop
         style="stop-color:#254f9b;stop-opacity:1;"
         offset="1"
         id="stop4122" />
    </linearGradient>
    <linearGradient
       id="linearGradient4110">
      <stop
         style="stop-color:#d8d8d8;stop-opacity:1;"
         offset="0"
         id="stop4112" />
      <stop
         style="stop-color:#ffffff;stop-opacity:1;"
         offset="1"
         id="stop4114" />
    </linearGradient>
    <linearGradient
       inkscape:collect="always"
       xlink:href="#linearGradient4110"
       id="linearGradient4116"
       x1="192.50609"
       y1="76.248123"
       x2="192.50609"
       y2="54.014217"
       gradientUnits="userSpaceOnUse"
       gradientTransform="matrix(1.0844173,0,0,0.9903293,-15.828082,18.860875)" />
    <linearGradient
       inkscape:collect="always"
       xlink:href="#linearGradient4118"
       id="linearGradient4124"
       x1="212.06747"
       y1="84.862183"
       x2="212.0598"
       y2="44.862183"
       gradientUnits="userSpaceOnUse"
       gradientTransform="matrix(0.8333333,0,0,1,18.095233,17.5)" />
  </defs>
  <sodipodi:namedview
     id="base"
     pagecolor="#ffffff"
     bordercolor="#666666"
     borderopacity="1.0"
     gridtolerance="10000"
     guidetolerance="10"
     objecttolerance="10"
     inkscape:pageopacity="0.0"
     inkscape:pageshadow="2"
     inkscape:zoom="3.959798"
     inkscape:cx="217.73866"
     inkscape:cy="977.57614"
     inkscape:document-units="px"
     inkscape:current-layer="layer1"
     inkscape:window-width="1048"
     inkscape:window-height="834"
     inkscape:window-x="480"
     inkscape:window-y="128" />
  <metadata
     id="metadata7">
    <rdf:RDF>
      <cc:Work
         rdf:about="">
        <dc:format>image/svg+xml</dc:format>
        <dc:type
           rdf:resource="http://purl.org/dc/dcmitype/StillImage" />
      </cc:Work>
    </rdf:RDF>
  </metadata>
  <g
     inkscape:label="Layer 1"
     inkscape:groupmode="layer"
     id="layer1">
    <rect
       style="opacity:1;fill:#254f9b;fill-opacity:1;stroke:none;stroke-width:1;stroke-linecap:round;stroke-linejoin:miter;stroke-miterlimit:4;stroke-dasharray:none;stroke-dashoffset:0;stroke-opacity:1"
       id="rect2160"
       width="440"
       height="300"
       x="140"
       y="309.50504" />
    <rect
       style="opacity:1;fill:url(#linearGradient4124);fill-opacity:1;stroke:none;stroke-width:1;stroke-linecap:round;stroke-linejoin:miter;stroke-miterlimit:4;stroke-dasharray:none;stroke-dashoffset:0;stroke-opacity:1"
       id="rect3138"
       width="125"
       height="40"
       x="130"
       y="62.362183"
       inkscape:export-filename="C:\Development\ftp\public\images\jupiter.png"
       inkscape:export-xdpi="90"
       inkscape:export-ydpi="90" />
    <path
       style="font-size:23.24669647px;font-style:normal;font-weight:normal;fill:url(#linearGradient4116);fill-opacity:1;stroke:#3f3f3f;stroke-width:0.51815307;stroke-linecap:butt;stroke-linejoin:miter;stroke-miterlimit:4;stroke-dasharray:none;stroke-opacity:1;font-family:Verdana"
       d="M 139.90009,85.121417 C 139.90009,86.590271 139.40978,87.721881 138.42916,88.516247 C 137.44852,89.310624 136.1335,89.707813 134.48408,89.707813 C 134.09018,89.707813 133.565,89.675966 132.90851,89.612262 C 132.25202,89.548568 131.70222,89.471749 131.25908,89.381815 L 131.25908,87.302211 L 131.39448,87.302211 C 131.73094,87.407129 132.14534,87.515794 132.63771,87.628198 C 133.13006,87.740613 133.63475,87.79682 134.15173,87.79682 C 134.9067,87.79682 135.50779,87.718132 135.95502,87.560756 C 136.40224,87.40338 136.73255,87.178551 136.94591,86.88628 C 137.16747,86.586522 137.30902,86.219311 137.37057,85.784648 C 137.43212,85.349995 137.46288,84.847889 137.46289,84.27834 L 137.46771,72.733671 L 139.90009,72.733671 L 139.90009,85.121417 z M 155.86506,89.471749 L 153.55094,89.471749 L 153.55094,88.077846 C 152.77135,88.639907 152.0246,89.070812 151.31067,89.37058 C 150.59674,89.670338 149.80895,89.820227 148.94733,89.820227 C 147.50305,89.820227 146.37881,89.417421 145.57462,88.611798 C 144.77042,87.806186 144.36832,86.623997 144.36832,85.06522 L 144.36832,76.915383 L 146.68245,76.915383 L 146.68245,84.064757 C 146.68243,84.701758 146.71526,85.246957 146.78091,85.700342 C 146.84656,86.153738 146.98606,86.54156 147.19942,86.863799 C 147.42099,87.193545 147.70819,87.433358 148.06106,87.583237 C 148.41393,87.733116 148.9268,87.808055 149.5997,87.808055 C 150.19875,87.808055 150.85318,87.665673 151.56301,87.380899 C 152.27284,87.096125 152.93548,86.732652 153.55094,86.290502 L 153.55094,76.915383 L 155.86506,76.915383 L 155.86506,89.471749 z M 172.51933,83.041813 C 172.51932,84.061008 172.3593,84.99215 172.03926,85.835237 C 171.71922,86.678325 171.26789,87.392134 170.68527,87.976677 C 170.14365,88.531241 169.50563,88.960277 168.7712,89.263783 C 168.03674,89.5673 167.25921,89.719059 166.43861,89.719059 C 165.72468,89.719059 165.07844,89.647857 164.49992,89.505475 C 163.92139,89.363083 163.3326,89.142013 162.73356,88.842245 L 162.73356,94.103106 L 160.41945,94.103106 L 160.41945,76.915383 L 162.73356,76.915383 L 162.73356,78.230599 C 163.349,77.758481 164.04038,77.363162 164.80764,77.04465 C 165.57492,76.726171 166.39347,76.566915 167.26332,76.566905 C 168.92094,76.566915 170.21135,77.138343 171.13455,78.281178 C 172.05772,79.424044 172.51932,81.010919 172.51933,83.041813 L 172.51933,83.041813 z M 170.13135,83.098009 C 170.13134,81.584216 169.84823,80.452606 169.28203,79.70319 C 168.71578,78.953785 167.84595,78.579077 166.67248,78.579066 C 166.00778,78.579077 165.33899,78.710224 164.6661,78.972506 C 163.9932,79.234811 163.349,79.579541 162.73356,80.006696 L 162.73356,87.122344 C 163.39004,87.392134 163.95421,87.57574 164.42607,87.67316 C 164.89791,87.770591 165.43336,87.819301 166.03241,87.819301 C 167.32077,87.819301 168.326,87.422112 169.04815,86.627735 C 169.77028,85.833368 170.13134,84.656797 170.13135,83.098009 L 170.13135,83.098009 z M 178.61235,74.813288 L 176.00282,74.813288 L 176.00282,72.62126 L 178.61235,72.62126 L 178.61235,74.813288 z M 178.46463,89.471749 L 176.15052,89.471749 L 176.15052,76.915383 L 178.46463,76.915383 L 178.46463,89.471749 z M 190.20756,89.359334 C 189.77264,89.464252 189.29874,89.550437 188.78586,89.617879 C 188.27297,89.685332 187.81548,89.719059 187.41339,89.719059 C 186.01015,89.719059 184.94335,89.374329 184.21302,88.684869 C 183.48267,87.995409 183.11749,86.890028 183.1175,85.368727 L 183.1175,78.691481 L 181.55424,78.691481 L 181.55424,76.915383 L 183.1175,76.915383 L 183.1175,73.30697 L 185.43161,73.30697 L 185.43161,76.915383 L 190.20756,76.915383 L 190.20756,78.691481 L 185.43161,78.691481 L 185.43161,84.413225 C 185.43161,85.072718 185.44802,85.587938 185.48085,85.958887 C 185.51367,86.329846 185.62855,86.676456 185.82551,86.998694 C 186.00605,87.298463 186.25428,87.517663 186.57021,87.656307 C 186.88614,87.79494 187.36824,87.864262 188.01653,87.864262 C 188.39401,87.864262 188.7879,87.813683 189.19821,87.712504 C 189.60851,87.611335 189.90393,87.527029 190.08447,87.459587 L 190.20756,87.459587 L 190.20756,89.359334 z M 204.5231,83.412772 L 194.39267,83.412772 C 194.39267,84.184669 194.51986,84.857255 194.77425,85.430551 C 195.02863,86.003859 195.37739,86.474107 195.82054,86.841318 C 196.24724,87.201042 196.75396,87.470822 197.34071,87.650679 C 197.92744,87.830546 198.57367,87.920469 199.2794,87.920469 C 200.21488,87.920469 201.15654,87.749979 202.10435,87.408997 C 203.05214,87.068016 203.72709,86.732652 204.1292,86.402917 L 204.2523,86.402917 L 204.2523,88.70735 C 203.4727,89.007118 202.67672,89.258166 201.86432,89.460503 C 201.05191,89.662851 200.19847,89.76402 199.30402,89.76402 C 197.02271,89.76402 195.24199,89.200089 193.96185,88.072228 C 192.6817,86.944367 192.04163,85.342497 192.04163,83.266631 C 192.04163,81.213257 192.65503,79.583289 193.88184,78.376729 C 195.10864,77.17019 196.7232,76.566915 198.72549,76.566905 C 200.58006,76.566915 202.00996,77.061524 203.01523,78.050742 C 204.02046,79.03997 204.52308,80.445109 204.5231,82.266168 L 204.5231,83.412772 z M 202.27052,81.79404 C 202.2623,80.684921 201.95663,79.82685 201.35349,79.219816 C 200.75033,78.612804 199.8333,78.309297 198.6024,78.309287 C 197.36326,78.309297 196.37649,78.642782 195.64204,79.30975 C 194.9076,79.976729 194.49115,80.804833 194.39267,81.79404 L 202.27052,81.79404 z M 216.61067,79.219816 L 216.48759,79.219816 C 216.14291,79.144888 215.80851,79.090549 215.48438,79.056823 C 215.16024,79.023107 214.7766,79.006244 214.33347,79.006233 C 213.61954,79.006244 212.93023,79.150505 212.26554,79.439017 C 211.60084,79.72755 210.96076,80.100379 210.34531,80.557512 L 210.34531,89.471749 L 208.0312,89.471749 L 208.0312,76.915383 L 210.34531,76.915383 L 210.34531,78.770169 C 211.26439,78.095714 212.07474,77.617969 212.77638,77.336922 C 213.47799,77.055907 214.19396,76.915394 214.92432,76.915383 C 215.32641,76.915394 215.61772,76.92476 215.79826,76.943481 C 215.97878,76.962235 216.24958,76.997831 216.61067,77.050278 L 216.61067,79.219816 z M 234.32353,89.471749 L 227.08576,89.471749 L 227.08576,87.763093 L 229.48604,87.763093 L 229.48604,74.442328 L 227.08576,74.442328 L 227.08576,72.733671 L 234.32353,72.733671 L 234.32353,74.442328 L 231.92325,74.442328 L 231.92325,87.763093 L 234.32353,87.763093 L 234.32353,89.471749 z M 251.56864,74.712119 L 245.02017,74.712119 L 245.02017,89.471749 L 242.58296,89.471749 L 242.58296,74.712119 L 236.0345,74.712119 L 236.0345,72.733671 L 251.56864,72.733671 L 251.56864,74.712119 z "
       id="text3134"
       sodipodi:nodetypes="cssscccssssscccccccsssccccssssscccccsssssccccccssscccsssccssscccccccccccccsssccccccccccccssssscccccssssscccssssssscccsssccccsssccccccssscccccccccccccccccccccccc"
       inkscape:export-filename="C:\Development\ftp\public\images\jupiter.png"
       inkscape:export-xdpi="90"
       inkscape:export-ydpi="90" />
  </g>
</svg>
